<?xml version="1.0" encoding="UTF-8"?>
<svg width="128" height="128" viewBox="0 0 128 128" xmlns="http://www.w3.org/2000/svg">
  <!-- Background gradient similar to Claude's style -->
  <defs>
    <linearGradient id="bgGradient" x1="0%" y1="0%" x2="100%" y2="100%">
      <stop offset="0%" style="stop-color:#D4A373;stop-opacity:1" />
      <stop offset="100%" style="stop-color:#8B6F47;stop-opacity:1" />
    </linearGradient>
    <linearGradient id="serverGradient" x1="0%" y1="0%" x2="0%" y2="100%">
      <stop offset="0%" style="stop-color:#FFFFFF;stop-opacity:0.9" />
      <stop offset="100%" style="stop-color:#F5F5F5;stop-opacity:0.8" />
    </linearGradient>
  </defs>
  
  <!-- Background circle -->
  <circle cx="64" cy="64" r="60" fill="url(#bgGradient)"/>
  
  <!-- Server stack representation (MCP) -->
  <g transform="translate(64, 64)">
    <!-- Bottom server layer -->
    <rect x="-35" y="5" width="70" height="12" rx="2" fill="url(#serverGradient)" opacity="0.7"/>
    <rect x="-30" y="8" width="8" height="3" rx="1" fill="#8B6F47"/>
    <rect x="-20" y="8" width="8" height="3" rx="1" fill="#8B6F47"/>
    <circle cx="25" cy="9.5" r="2" fill="#4CAF50"/>
    
    <!-- Middle server layer -->
    <rect x="-35" y="-7" width="70" height="12" rx="2" fill="url(#serverGradient)" opacity="0.85"/>
    <rect x="-30" y="-4" width="8" height="3" rx="1" fill="#8B6F47"/>
    <rect x="-20" y="-4" width="8" height="3" rx="1" fill="#8B6F47"/>
    <circle cx="25" cy="-2.5" r="2" fill="#4CAF50"/>
    
    <!-- Top server layer -->
    <rect x="-35" y="-19" width="70" height="12" rx="2" fill="url(#serverGradient)"/>
    <rect x="-30" y="-16" width="8" height="3" rx="1" fill="#8B6F47"/>
    <rect x="-20" y="-16" width="8" height="3" rx="1" fill="#8B6F47"/>
    <circle cx="25" cy="-14.5" r="2" fill="#4CAF50"/>
    
    <!-- Connection dots (representing protocol) -->
    <circle cx="0" cy="-30" r="3" fill="#FFFFFF" opacity="0.9"/>
    <circle cx="-12" cy="-28" r="2" fill="#FFFFFF" opacity="0.7"/>
    <circle cx="12" cy="-28" r="2" fill="#FFFFFF" opacity="0.7"/>
    
    <!-- Home Assistant house icon at bottom -->
    <g transform="translate(0, 25) scale(0.7)">
      <path d="M -12,-8 L 0,-16 L 12,-8 L 12,4 L -12,4 Z" 
            fill="none" stroke="#FFFFFF" stroke-width="2" stroke-linejoin="round"/>
      <rect x="-4" y="-2" width="8" height="6" fill="#FFFFFF" opacity="0.8"/>
    </g>
  </g>
</svg>